<svg height="512pt" viewBox="-56 0 512 512" width="512pt" xmlns="http://www.w3.org/2000/svg"><path d="m344.367188 40.164062h-91.503907c-6.550781-23.152343-27.875-40.164062-53.097656-40.164062s-46.542969 17.011719-53.09375 40.164062h-91.507813c-30.417968 0-55.164062 24.75-55.164062 55.167969v361.5c0 30.421875 24.746094 55.167969 55.164062 55.167969h289.203126c30.417968 0 55.164062-24.746094 55.164062-55.167969v-361.5c.003906-30.417969-24.746094-55.167969-55.164062-55.167969zm-184.765626 30c8.28125 0 15-6.714843 15-15 0-13.875 11.289063-25.164062 25.164063-25.164062 13.878906 0 25.167969 11.289062 25.167969 25.164062 0 8.285157 6.714844 15 15 15h25.167968v50.335938h-130.667968v-50.335938zm209.933594 386.667969c0 13.878907-11.289062 25.167969-25.167968 25.167969h-289.203126c-13.875 0-25.164062-11.289062-25.164062-25.167969v-361.5c0-13.875 11.289062-25.167969 25.164062-25.167969h49.269532v65.335938c0 8.285156 6.714844 15 15 15h160.667968c8.28125 0 15-6.714844 15-15v-65.335938h49.265626c13.878906 0 25.167968 11.292969 25.167968 25.167969zm0 0"/><path d="m95.335938 401.671875c-3.949219 0-7.820313 1.597656-10.609376 4.386719-2.789062 2.792968-4.390624 6.660156-4.390624 10.613281 0 3.9375 1.601562 7.808594 4.390624 10.597656 2.789063 2.800781 6.660157 4.402344 10.609376 4.402344 3.941406 0 7.8125-1.601563 10.601562-4.402344 2.800781-2.789062 4.398438-6.660156 4.398438-10.597656 0-3.953125-1.601563-7.820313-4.398438-10.613281-2.789062-2.789063-6.652344-4.386719-10.601562-4.386719zm0 0"/><path d="m95.335938 334.71875c-3.949219 0-7.820313 1.601562-10.609376 4.402344-2.789062 2.789062-4.390624 6.660156-4.390624 10.597656 0 3.953125 1.601562 7.820312 4.390624 10.609375 2.789063 2.792969 6.660157 4.390625 10.609376 4.390625 3.949218 0 7.8125-1.597656 10.601562-4.390625 2.800781-2.789063 4.398438-6.65625 4.398438-10.609375 0-3.9375-1.601563-7.808594-4.398438-10.597656-2.789062-2.800782-6.652344-4.402344-10.601562-4.402344zm0 0"/><path d="m95.335938 267.78125c-3.949219 0-7.820313 1.597656-10.609376 4.390625-2.789062 2.796875-4.390624 6.65625-4.390624 10.609375 0 3.949219 1.601562 7.808594 4.390624 10.609375 2.789063 2.789063 6.660157 4.390625 10.609376 4.390625 3.941406 0 7.8125-1.601562 10.601562-4.390625 2.800781-2.800781 4.398438-6.660156 4.398438-10.609375 0-3.953125-1.601563-7.8125-4.398438-10.609375-2.789062-2.792969-6.652344-4.390625-10.601562-4.390625zm0 0"/><path d="m95.335938 200.828125c-3.949219 0-7.820313 1.613281-10.609376 4.402344-2.789062 2.789062-4.390624 6.660156-4.390624 10.597656 0 3.953125 1.601562 7.820313 4.390624 10.613281 2.789063 2.789063 6.660157 4.386719 10.609376 4.386719 3.949218 0 7.8125-1.597656 10.601562-4.386719 2.800781-2.792968 4.398438-6.660156 4.398438-10.613281 0-3.9375-1.601563-7.808594-4.398438-10.597656-2.789062-2.789063-6.652344-4.402344-10.601562-4.402344zm0 0"/><path d="m304.199219 401.664062h-128.535157c-8.28125 0-15 6.71875-15 15 0 8.285157 6.71875 15 15 15h128.535157c8.285156 0 15-6.714843 15-15 0-8.28125-6.714844-15-15-15zm0 0"/><path d="m304.199219 334.722656h-128.535157c-8.28125 0-15 6.714844-15 15s6.71875 15 15 15h128.535157c8.285156 0 15-6.714844 15-15s-6.714844-15-15-15zm0 0"/><path d="m304.199219 267.777344h-128.535157c-8.28125 0-15 6.714844-15 15s6.71875 15 15 15h128.535157c8.285156 0 15-6.714844 15-15s-6.714844-15-15-15zm0 0"/><path d="m304.199219 200.835938h-128.535157c-8.28125 0-15 6.714843-15 15 0 8.28125 6.71875 15 15 15h128.535157c8.285156 0 15-6.71875 15-15 0-8.285157-6.714844-15-15-15zm0 0"/></svg>